<?xml version="1.0" encoding="UTF-8"?>
<!--Generator: Apple Native CoreSVG 341-->
<!DOCTYPE svg
PUBLIC "-//W3C//DTD SVG 1.1//EN"
       "http://www.w3.org/Graphics/SVG/1.1/DTD/svg11.dtd">
<svg version="1.1" xmlns="http://www.w3.org/2000/svg" xmlns:xlink="http://www.w3.org/1999/xlink" viewBox="0 0 25.3809 22.9785">
 <g>
  <rect height="15.5" opacity="1" width="21.6" x="1.9" y="5.7" rx="1.5" fill="black"/>
  <path d="M3.79883 22.9785L21.2109 22.9785C23.7402 22.9785 25.0195 21.709 25.0195 19.2188L25.0195 3.78906C25.0195 1.29883 23.7402 0.0292969 21.2109 0.0292969L3.79883 0.0292969C1.2793 0.0292969 0 1.28906 0 3.78906L0 19.2188C0 21.7188 1.2793 22.9785 3.79883 22.9785ZM3.66211 21.25C2.41211 21.25 1.72852 20.5859 1.72852 19.2969L1.72852 7.64648C1.72852 6.34766 2.41211 5.69336 3.66211 5.69336L21.3379 5.69336C22.5781 5.69336 23.2812 6.34766 23.2812 7.64648L23.2812 19.2969C23.2812 20.5859 22.5781 21.25 21.3379 21.25Z" fill="#53B336"/>
  <path d="M12.6904 18.8086C15.1514 18.8086 15.8447 15.918 15.8447 13.4668C15.8447 11.0156 15.1514 8.125 12.6904 8.125C10.2295 8.125 9.53613 11.0156 9.53613 13.4668C9.53613 15.918 10.2295 18.8086 12.6904 18.8086ZM12.6904 17.4902C11.5088 17.4902 11.1377 15.5664 11.1377 13.4668C11.1377 11.377 11.5088 9.44336 12.6904 9.44336C13.8721 9.44336 14.2432 11.377 14.2432 13.4668C14.2432 15.5664 13.8721 17.4902 12.6904 17.4902Z" fill="white"/>
 </g>
</svg>