<?xml version="1.0" encoding="UTF-8"?>
<!--Generator: Apple Native CoreSVG 341-->
<!DOCTYPE svg
PUBLIC "-//W3C//DTD SVG 1.1//EN"
       "http://www.w3.org/Graphics/SVG/1.1/DTD/svg11.dtd">
<svg version="1.1" xmlns="http://www.w3.org/2000/svg" xmlns:xlink="http://www.w3.org/1999/xlink" viewBox="0 0 28.8477 27.2363">
 <g>
  <rect height="27.2363" opacity="0" width="28.8477" x="0" y="0"/>
  <path d="M18.5808 16.0789C17.1671 17.2369 16.2598 18.9939 16.2598 20.9473C16.2598 21.445 16.3185 21.9297 16.4355 22.3926L7.69531 22.3926C6.65039 22.3926 6.02539 21.9043 6.02539 21.0938C6.02539 18.5742 9.17969 15.0977 14.2383 15.0977C15.911 15.0977 17.3752 15.4763 18.5808 16.0789ZM18.1543 9.0332C18.1543 11.4746 16.3379 13.3496 14.248 13.3496C12.1484 13.3496 10.3418 11.4746 10.3418 9.05273C10.3418 6.66016 12.1582 4.83398 14.248 4.83398C16.3379 4.83398 18.1543 6.62109 18.1543 9.0332Z" fill="white"/>
  <path d="M27.5684 20.9473C27.5684 23.6523 25.293 25.9082 22.6074 25.9082C19.8828 25.9082 17.6465 23.6719 17.6465 20.9473C17.6465 18.2227 19.8828 15.9863 22.6074 15.9863C25.3223 15.9863 27.5684 18.2227 27.5684 20.9473ZM22.002 18.4375L22.002 20.3418L20.0977 20.3418C19.7363 20.3418 19.502 20.5762 19.502 20.9473C19.502 21.3086 19.7363 21.543 20.0977 21.543L22.002 21.543L22.002 23.457C22.002 23.8086 22.2363 24.0527 22.6074 24.0527C22.9688 24.0527 23.2031 23.8086 23.2031 23.457L23.2031 21.543L25.1074 21.543C25.4688 21.543 25.7129 21.3086 25.7129 20.9473C25.7129 20.5762 25.4688 20.3418 25.1074 20.3418L23.2031 20.3418L23.2031 18.4375C23.2031 18.0859 22.9688 17.8418 22.6074 17.8418C22.2363 17.8418 22.002 18.0859 22.002 18.4375Z" fill="#32d74b"/>
 </g>
</svg>
